<?xml version="1.0" encoding="UTF-8"?>
<svg version="1.1" xmlns="http://www.w3.org/2000/svg" width="1082" height="1082">
<path d="M0 0 C357.06 0 714.12 0 1082 0 C1082 357.06 1082 714.12 1082 1082 C724.94 1082 367.88 1082 0 1082 C0 724.94 0 367.88 0 0 Z " fill="#9CCEDA" transform="translate(0,0)"/>
<path d="M0 0 C18.81 0.495 18.81 0.495 38 1 C38 95.05 38 189.1 38 286 C19.19 286.495 19.19 286.495 0 287 C0 280.4 0 273.8 0 267 C6.27 267 12.54 267 19 267 C19 185.49 19 103.98 19 20 C13.06 20 7.12 20 1 20 C0.67 19.67 0.34 19.34 0 19 C0 12.73 0 6.46 0 0 Z " fill="#638EB2" transform="translate(863,401)"/>
<path d="M0 0 C12.54 0 25.08 0 38 0 C38 5.94 38 11.88 38 18 C37.505 18.495 37.505 18.495 37 19 C31.06 19 25.12 19 19 19 C19 100.51 19 182.02 19 266 C25.27 266 31.54 266 38 266 C38 272.6 38 279.2 38 286 C25.46 285.67 12.92 285.34 0 285 C0 190.95 0 96.9 0 0 Z " fill="#638EB4" transform="translate(179,402)"/>
<path d="M0 0 C0 31.68 0 63.36 0 96 C-18.81 96 -37.62 96 -57 96 C-57 64.65 -57 33.3 -57 1 C-47.780625 0.835 -38.56125 0.67 -29.0625 0.5 C-26.14801025 0.44779297 -23.23352051 0.39558594 -20.23071289 0.34179688 C-17.9363608 0.30077418 -15.6420086 0.25975809 -13.34765625 0.21875 C-12.14363159 0.1971582 -10.93960693 0.17556641 -9.69909668 0.15332031 C-7.99384827 0.12286621 -7.99384827 0.12286621 -6.25415039 0.09179688 C-5.26153702 0.07403198 -4.26892365 0.05626709 -3.24623108 0.03796387 C-1 0 -1 0 0 0 Z " fill="#638EB3" transform="translate(369,496)"/>
<path d="M0 0 C6.27 0 12.54 0 19 0 C19 6.27 19 12.54 19 19 C25.27 19 31.54 19 38 19 C38 25.27 38 31.54 38 38 C44.27 37.67 50.54 37.34 57 37 C57 31.06 57 25.12 57 19 C63.27 19 69.54 19 76 19 C76 12.73 76 6.46 76 0 C82.27 0 88.54 0 95 0 C95 31.35 95 62.7 95 95 C88.73 95 82.46 95 76 95 C76 76.19 76 57.38 76 38 C70.06 38.33 64.12 38.66 58 39 C57.67 44.94 57.34 50.88 57 57 C50.4 57 43.8 57 37 57 C37 51.06 37 45.12 37 39 C31.39 39 25.78 39 20 39 C19.67 57.48 19.34 75.96 19 95 C12.73 95 6.46 95 0 95 C0 63.65 0 32.3 0 0 Z " fill="#638EB3" transform="translate(388,497)"/>
<path d="M0 0 C0.79792969 0.00386719 1.59585937 0.00773437 2.41796875 0.01171875 C3.61486328 0.00591797 3.61486328 0.00591797 4.8359375 0 C10.79136108 0.01011108 10.79136108 0.01011108 11.91796875 1.13671875 C12.00428749 2.47939288 12.02503348 3.82646197 12.015625 5.171875 C12.01312744 5.90027588 12.01062988 6.62867676 12.00805664 7.37915039 C11.99895264 8.30977295 11.98984863 9.24039551 11.98046875 10.19921875 C11.95984375 13.14859375 11.93921875 16.09796875 11.91796875 19.13671875 C18.18796875 19.13671875 24.45796875 19.13671875 30.91796875 19.13671875 C30.91796875 44.21671875 30.91796875 69.29671875 30.91796875 95.13671875 C24.64796875 95.13671875 18.37796875 95.13671875 11.91796875 95.13671875 C11.91796875 88.86671875 11.91796875 82.59671875 11.91796875 76.13671875 C5.64796875 76.13671875 -0.62203125 76.13671875 -7.08203125 76.13671875 C-7.08203125 82.40671875 -7.08203125 88.67671875 -7.08203125 95.13671875 C-13.35203125 95.13671875 -19.62203125 95.13671875 -26.08203125 95.13671875 C-26.08203125 70.05671875 -26.08203125 44.97671875 -26.08203125 19.13671875 C-19.81203125 19.13671875 -13.54203125 19.13671875 -7.08203125 19.13671875 C-7.12160894 13.25788872 -7.12160894 13.25788872 -7.17211914 7.37915039 C-7.1746167 6.65074951 -7.17711426 5.92234863 -7.1796875 5.171875 C-7.18754272 4.04857788 -7.18754272 4.04857788 -7.19555664 2.90258789 C-6.9282961 -1.25460667 -3.35429281 0.00569489 0 0 Z " fill="#638EB3" transform="translate(490.08203125,382.86328125)"/>
<path d="M0 0 C18.81 0 37.62 0 57 0 C57 6.27 57 12.54 57 19 C44.46 19 31.92 19 19 19 C19.33 24.94 19.66 30.88 20 37 C38.315 37.495 38.315 37.495 57 38 C57 56.81 57 75.62 57 95 C38.19 95 19.38 95 0 95 C0 88.73 0 82.46 0 76 C12.54 76 25.08 76 38 76 C38 69.73 38 63.46 38 57 C25.46 57 12.92 57 0 57 C0 38.19 0 19.38 0 0 Z " fill="#638EB3" transform="translate(236,611)"/>
<path d="M0 0 C6.27 0 12.54 0 19 0 C19 25.08 19 50.16 19 76 C25.27 76 31.54 76 38 76 C38 50.92 38 25.84 38 0 C44.27 0 50.54 0 57 0 C57 31.35 57 62.7 57 95 C38.19 95 19.38 95 0 95 C0 63.65 0 32.3 0 0 Z " fill="#638EB3" transform="translate(578,497)"/>
<path d="M0 0 C18.81 0 37.62 0 57 0 C57 18.81 57 37.62 57 57 C44.46 57 31.92 57 19 57 C19 69.54 19 82.08 19 95 C12.73 95 6.46 95 0 95 C0 63.65 0 32.3 0 0 Z " fill="#648EB5" transform="translate(502,497)"/>
<path d="M0 0 C6.27 0 12.54 0 19 0 C19 25.08 19 50.16 19 76 C25.27 76 31.54 76 38 76 C37.67 50.92 37.34 25.84 37 0 C43.27 0 49.54 0 56 0 C57.87788672 1.87788672 57.12008587 4.59165909 57.12442017 7.08978271 C57.11902725 8.40284393 57.11902725 8.40284393 57.11352539 9.74243164 C57.11367142 10.6594133 57.11381744 11.57639496 57.1139679 12.52116394 C57.1132684 15.56751836 57.10547428 18.61381245 57.09765625 21.66015625 C57.0957922 23.76622993 57.09436824 25.87230403 57.09336853 27.9783783 C57.08954231 33.53342883 57.07971114 39.08845341 57.06866455 44.64349365 C57.05665861 51.3022737 57.05204869 57.9610624 57.04621124 64.61985016 C57.03649944 74.74658485 57.0173436 84.87326253 57 95 C38.19 95 19.38 95 0 95 C0 63.65 0 32.3 0 0 Z " fill="#638EB3" transform="translate(312,383)"/>
<path d="M0 0 C18.81 0 37.62 0 57 0 C57 6.27 57 12.54 57 19 C44.46 19 31.92 19 19 19 C19 25.27 19 31.54 19 38 C25.27 38 31.54 38 38 38 C38.495 47.405 38.495 47.405 39 57 C32.4 57 25.8 57 19 57 C19 63.27 19 69.54 19 76 C22.98900391 75.98259766 22.98900391 75.98259766 27.05859375 75.96484375 C29.62345256 75.95705348 32.18831007 75.95097655 34.75317383 75.94506836 C36.54094021 75.94002782 38.32870245 75.93319546 40.11645508 75.92456055 C42.68051168 75.9124827 45.24451397 75.90676906 47.80859375 75.90234375 C48.6127623 75.89718246 49.41693085 75.89202118 50.24546814 75.88670349 C52.16401715 75.88650785 54.08245368 75.93798017 56 76 C60.48454135 80.48454135 57 88.6579008 57 95 C38.19 95 19.38 95 0 95 C0 63.65 0 32.3 0 0 Z " fill="#638EB3" transform="translate(464,611)"/>
<path d="M0 0 C18.81 0 37.62 0 57 0 C57 6.27 57 12.54 57 19 C44.46 19 31.92 19 19 19 C19 25.27 19 31.54 19 38 C25.27 38 31.54 38 38 38 C38 44.27 38 50.54 38 57 C31.73 57 25.46 57 19 57 C19 63.27 19 69.54 19 76 C31.54 76 44.08 76 57 76 C57 82.27 57 88.54 57 95 C38.19 95 19.38 95 0 95 C0 63.65 0 32.3 0 0 Z " fill="#638EB4" transform="translate(730,497)"/>
<path d="M0 0 C18.81 0 37.62 0 57 0 C57 6.27 57 12.54 57 19 C44.46 19 31.92 19 19 19 C19 25.27 19 31.54 19 38 C25.27 38 31.54 38 38 38 C38 44.27 38 50.54 38 57 C31.73 57.33 25.46 57.66 19 58 C19 63.94 19 69.88 19 76 C31.54 76 44.08 76 57 76 C57 82.27 57 88.54 57 95 C38.19 95 19.38 95 0 95 C0 63.65 0 32.3 0 0 Z " fill="#638EB3" transform="translate(711,611)"/>
<path d="M0 0 C18.81 0 37.62 0 57 0 C57 6.6 57 13.2 57 20 C44.79 20 32.58 20 20 20 C19.67 38.48 19.34 56.96 19 76 C31.54 76 44.08 76 57 76 C57 82.27 57 88.54 57 95 C38.19 95 19.38 95 0 95 C0 63.65 0 32.3 0 0 Z " fill="#638EB2" transform="translate(635,611)"/>
<path d="M0 0 C18.81 0 37.62 0 57 0 C57 6.27 57 12.54 57 19 C50.73 19 44.46 19 38 19 C38 37.81 38 56.62 38 76 C43.94 76 49.88 76 56 76 C60.48454135 80.48454135 57 88.6579008 57 95 C38.19 95 19.38 95 0 95 C0 88.73 0 82.46 0 76 C6.27 76 12.54 76 19 76 C19 57.19 19 38.38 19 19 C9.595 19.495 9.595 19.495 0 20 C0 13.4 0 6.8 0 0 Z " fill="#638EB4" transform="translate(388,611)"/>
<path d="M0 0 C18.81 0 37.62 0 57 0 C57 6.27 57 12.54 57 19 C44.46 19 31.92 19 19 19 C19 37.81 19 56.62 19 76 C31.54 76 44.08 76 57 76 C57 82.27 57 88.54 57 95 C38.19 95 19.38 95 0 95 C0 63.65 0 32.3 0 0 Z " fill="#638EB3" transform="translate(236,497)"/>
<path d="M0 0 C18.81 0 37.62 0 57 0 C57 6.27 57 12.54 57 19 C44.46 19 31.92 19 19 19 C19 37.81 19 56.62 19 76 C31.13173597 75.96039717 31.13173597 75.96039717 43.26342773 75.90991211 C44.77848236 75.90699293 46.29353777 75.90444438 47.80859375 75.90234375 C48.60237427 75.89722778 49.39615479 75.89211182 50.21398926 75.88684082 C52.14302829 75.88653044 54.07196912 75.93764107 56 76 C60.48454135 80.48454135 57 88.6579008 57 95 C38.19 95 19.38 95 0 95 C0 63.65 0 32.3 0 0 Z " fill="#638EB3" transform="translate(312,611)"/>
<path d="M0 0 C18.81 0 37.62 0 57 0 C57 12.54 57 25.08 57 38 C50.73 38 44.46 38 38 38 C38 31.73 38 25.46 38 19 C31.73 19 25.46 19 19 19 C19 25.27 19 31.54 19 38 C24.87883003 37.96042231 24.87883003 37.96042231 30.75756836 37.90991211 C31.48596924 37.90741455 32.21437012 37.90491699 32.96484375 37.90234375 C33.7137085 37.89710693 34.46257324 37.89187012 35.23413086 37.88647461 C37 38 37 38 38 39 C38.08631874 40.34267413 38.10706473 41.68974322 38.09765625 43.03515625 C38.09515869 43.76355713 38.09266113 44.49195801 38.09008789 45.24243164 C38.08098389 46.1730542 38.07187988 47.10367676 38.0625 48.0625 C38.041875 51.011875 38.02125 53.96125 38 57 C31.73 57 25.46 57 19 57 C19 69.54 19 82.08 19 95 C12.73 95 6.46 95 0 95 C0 63.65 0 32.3 0 0 Z " fill="#638EB4" transform="translate(806,497)"/>
<path d="M0 0 C9.219375 -0.020625 18.43875 -0.04125 27.9375 -0.0625 C32.30923462 -0.07615601 32.30923462 -0.07615601 36.76928711 -0.09008789 C39.06363885 -0.09300681 41.35799111 -0.09555543 43.65234375 -0.09765625 C44.85636841 -0.10277222 46.06039307 -0.10788818 47.30090332 -0.11315918 C48.4377356 -0.11328003 49.57456787 -0.11340088 50.74584961 -0.11352539 C51.73846298 -0.115746 52.73107635 -0.11796661 53.75376892 -0.12025452 C56 0 56 0 57 1 C57 6.94 57 12.88 57 19 C44.46 19 31.92 19 19 19 C19 25.27 19 31.54 19 38 C25.27 38 31.54 38 38 38 C38 44.27 38 50.54 38 57 C31.73 57 25.46 57 19 57 C19 69.54 19 82.08 19 95 C12.73 95 6.46 95 0 95 C0 63.65 0 32.3 0 0 Z " fill="#638EB3" transform="translate(236,383)"/>
<path d="M0 0 C12.54 0 25.08 0 38 0 C38 6.27 38 12.54 38 19 C31.73 19 25.46 19 19 19 C19.33 37.48 19.66 55.96 20 75 C25.94 75.33 31.88 75.66 38 76 C38 82.27 38 88.54 38 95 C19.19 95.495 19.19 95.495 0 96 C0 64.32 0 32.64 0 0 Z " fill="#638EB3" transform="translate(388,383)"/>
<path d="M0 0 C18.81 0 37.62 0 57 0 C57 6.27 57 12.54 57 19 C50.73 19 44.46 19 38 19 C38 44.08 38 69.16 38 95 C31.73 95 25.46 95 19 95 C19 69.92 19 44.84 19 19 C12.73 19 6.46 19 0 19 C0 12.73 0 6.46 0 0 Z " fill="#638EB4" transform="translate(654,497)"/>
<path d="M0 0 C6.6 0 13.2 0 20 0 C19.67 6.27 19.34 12.54 19 19 C25.27 18.67 31.54 18.34 38 18 C38.020625 21.114375 38.04125 24.22875 38.0625 27.4375 C38.071604 28.42032959 38.08070801 29.40315918 38.09008789 30.41577148 C38.09258545 31.18477783 38.09508301 31.95378418 38.09765625 32.74609375 C38.10289307 33.53685303 38.10812988 34.3276123 38.11352539 35.14233398 C38 37 38 37 37 38 C31.06 38 25.12 38 19 38 C19 56.81 19 75.62 19 95 C12.73 95 6.46 95 0 95 C0 63.65 0 32.3 0 0 Z " fill="#638EB3" transform="translate(540,383)"/>
<path d="M0 0 C6.27 0 12.54 0 19 0 C19 31.35 19 62.7 19 95 C12.73 95 6.46 95 0 95 C0 82.46 0 69.92 0 57 C-6.27 57 -12.54 57 -19 57 C-19 50.73 -19 44.46 -19 38 C-12.73 38 -6.46 38 0 38 C0 25.46 0 12.92 0 0 Z " fill="#638EB4" transform="translate(597,611)"/>
<path d="M0 0 C6.27 0 12.54 0 19 0 C19 31.35 19 62.7 19 95 C12.73 95 6.46 95 0 95 C0 82.46 0 69.92 0 57 C-6.27 57 -12.54 57 -19 57 C-19 50.73 -19 44.46 -19 38 C-12.73 38 -6.46 38 0 38 C0 25.46 0 12.92 0 0 Z " fill="#638EB4" transform="translate(597,383)"/>
<path d="M0 0 C6.27 0 12.54 0 19 0 C19 6.27 19 12.54 19 19 C24.87883003 18.96042231 24.87883003 18.96042231 30.75756836 18.90991211 C31.48596924 18.90741455 32.21437012 18.90491699 32.96484375 18.90234375 C33.7137085 18.89710693 34.46257324 18.89187012 35.23413086 18.88647461 C37 19 37 19 38 20 C38.09986975 22.84335048 38.13877881 25.65697163 38.125 28.5 C38.13080078 29.69689453 38.13080078 29.69689453 38.13671875 30.91796875 C38.12660767 36.87339233 38.12660767 36.87339233 37 38 C31.39 38 25.78 38 20 38 C19.67 56.81 19.34 75.62 19 95 C12.73 95 6.46 95 0 95 C0 63.65 0 32.3 0 0 Z " fill="#638EB3" transform="translate(540,611)"/>
<path d="M0 0 C6.6 0 13.2 0 20 0 C19.67 18.81 19.34 37.62 19 57 C12.73 57 6.46 57 0 57 C0 38.19 0 19.38 0 0 Z " fill="#9CCCDA" transform="translate(331,516)"/>
<path d="M0 0 C5.94 0 11.88 0 18 0 C18 18.81 18 37.62 18 57 C11.73 57 5.46 57 -1 57 C-1.02465958 49.20377841 -1.04284068 41.40757936 -1.05493164 33.61132812 C-1.05997042 30.95735275 -1.06680151 28.30338016 -1.07543945 25.64941406 C-1.08752489 21.84178989 -1.09323275 18.03420231 -1.09765625 14.2265625 C-1.10281754 13.03382721 -1.10797882 11.84109192 -1.11329651 10.61221313 C-1.11340981 8.96072769 -1.11340981 8.96072769 -1.11352539 7.27587891 C-1.115746 6.30325104 -1.11796661 5.33062317 -1.12025452 4.32852173 C-1 2 -1 2 0 0 Z " fill="#638EB3" transform="translate(427,402)"/>
<path d="M0 0 C6.27 0 12.54 0 19 0 C19 12.54 19 25.08 19 38 C12.73 38 6.46 38 0 38 C0 25.46 0 12.92 0 0 Z " fill="#638EB4" transform="translate(844,554)"/>
<path d="M0 0 C5.94 0 11.88 0 18 0 C19 1 19 1 19.11352539 4.51000977 C19.11336626 6.07048422 19.10767142 7.63096393 19.09765625 9.19140625 C19.0962413 10.01124496 19.09482635 10.83108368 19.09336853 11.67576599 C19.08775289 14.30471382 19.07519779 16.93357773 19.0625 19.5625 C19.05748701 21.34049357 19.05292376 23.11848846 19.04882812 24.89648438 C19.03862752 29.26438158 19.01905532 33.6320964 19 38 C12.73 38 6.46 38 0 38 C0 25.46 0 12.92 0 0 Z " fill="#9DCCDA" transform="translate(483,402)"/>
<path d="M0 0 C18.81 0 37.62 0 57 0 C57 18.81 57 37.62 57 57 C56.01 57 55.02 57 54 57 C52.75822479 54.51644959 52.87963319 52.86892378 52.88647461 50.09130859 C52.88655014 49.07040131 52.88662567 48.04949402 52.88670349 46.99765015 C52.89186478 45.89240997 52.89702606 44.7871698 52.90234375 43.6484375 C52.9037587 42.5192691 52.90517365 41.39010071 52.90663147 40.22671509 C52.91224256 36.60945012 52.92479697 32.99224636 52.9375 29.375 C52.94251357 26.92708423 52.94707672 24.47916748 52.95117188 22.03125 C52.9622156 16.02081234 52.97896456 10.01041054 53 4 C52.36550934 4.00222061 51.73101868 4.00444122 51.07730103 4.00672913 C44.49164389 4.02880045 37.90599722 4.04391437 31.3203125 4.05493164 C28.86034722 4.05996989 26.40038495 4.0668006 23.94042969 4.07543945 C20.41079975 4.08752723 16.88120931 4.09323329 13.3515625 4.09765625 C12.24632233 4.10281754 11.14108215 4.10797882 10.00234985 4.11329651 C8.98144257 4.11337204 7.96053528 4.11344757 6.90869141 4.11352539 C6.00712311 4.115746 5.10555481 4.11796661 4.17666626 4.12025452 C2 4 2 4 0 3 C0 2.01 0 1.02 0 0 Z " fill="#648FB1" transform="translate(502,497)"/>
<path d="M0 0 C6.27 0 12.54 0 19 0 C19 6.27 19 12.54 19 19 C12.73 19 6.46 19 0 19 C0 12.73 0 6.46 0 0 Z " fill="#9CCBDA" transform="translate(521,516)"/>
<path d="M0 0 C17.16 0 34.32 0 52 0 C52 0.33 52 0.66 52 1 C36.16 1 20.32 1 4 1 C4 1.66 4 2.32 4 3 C19.84 3 35.68 3 52 3 C52 3.33 52 3.66 52 4 C36.16 4.33 20.32 4.66 4 5 C3.67 8.63 3.34 12.26 3 16 C7.95 15.67 12.9 15.34 18 15 C18 15.33 18 15.66 18 16 C16.35 16 14.7 16 13 16 C13 16.99 13 17.98 13 19 C6.565 19.495 6.565 19.495 0 20 C0 13.4 0 6.8 0 0 Z " fill="#5F8BAA" transform="translate(388,611)"/>
<path d="M0 0 C6.27 0 12.54 0 19 0 C19 5.28 19 10.56 19 16 C17.68 15.67 16.36 15.34 15 15 C15.32742188 14.43796875 15.65484375 13.8759375 15.9921875 13.296875 C17.11785494 10.73140036 17.2068111 9.03157723 17.125 6.25 C17.09792969 5.05117188 17.09792969 5.05117188 17.0703125 3.828125 C17.04710937 3.22484375 17.02390625 2.6215625 17 2 C16.41605469 2.165 15.83210937 2.33 15.23046875 2.5 C12.15219736 3.19005033 9.14524888 3 6 3 C4.50256881 4.49743119 4.66797307 5.98824239 4.4375 8.0625 C4.293125 9.361875 4.14875 10.66125 4 12 C3.67 12 3.34 12 3 12 C2.67 9.36 2.34 6.72 2 4 C1.34 4 0.68 4 0 4 C0 2.68 0 1.36 0 0 Z " fill="#A0CEE4" transform="translate(521,516)"/>
<path d="M0 0 C6.27 0 12.54 0 19 0 C19 0.33 19 0.66 19 1 C11.08 1.495 11.08 1.495 3 2 C1.98412022 5.04763934 1.80195594 7.34718967 1.68359375 10.54296875 C1.62075195 12.15268555 1.62075195 12.15268555 1.55664062 13.79492188 C1.51732422 14.91447266 1.47800781 16.03402344 1.4375 17.1875 C1.39431641 18.31865234 1.35113281 19.44980469 1.30664062 20.61523438 C1.20050901 23.41003354 1.09845615 26.20492162 1 29 C0.67 29 0.34 29 0 29 C0 19.43 0 9.86 0 0 Z " fill="#5F8BA7" transform="translate(597,611)"/>
<path d="M0 0 C16.335 0.495 16.335 0.495 33 1 C33 1.33 33 1.66 33 2 C32.04109863 2.02505615 31.08219727 2.0501123 30.09423828 2.07592773 C26.54201523 2.1699862 22.98998844 2.27021058 19.43798828 2.37231445 C17.89962347 2.41566926 16.36121037 2.45734395 14.82275391 2.49731445 C12.6134586 2.55500398 10.40440652 2.61870179 8.1953125 2.68359375 C7.50567413 2.70030624 6.81603577 2.71701874 6.10549927 2.73423767 C2.42885736 2.80806995 2.42885736 2.80806995 -1 4 C-0.34 4.66 0.32 5.32 1 6 C-0.65 6.33 -2.3 6.66 -4 7 C-4 5.35 -4 3.7 -4 2 C-2.68 2 -1.36 2 0 2 C0 1.34 0 0.68 0 0 Z " fill="#5E89AC" transform="translate(183,680)"/>
<path d="M0 0 C1.65 0 3.3 0 5 0 C5 0.99 5 1.98 5 3 C0.05 3 -4.9 3 -10 3 C-10.33 2.34 -10.66 1.68 -11 1 C-7.37 1 -3.74 1 0 1 C0 0.67 0 0.34 0 0 Z " fill="#608DA7" transform="translate(496,665)"/>
<path d="M0 0 C1.32 0 2.64 0 4 0 C4 0.66 4 1.32 4 2 C3.34 2 2.68 2 2 2 C2 6.29 2 10.58 2 15 C1.67 15 1.34 15 1 15 C0.67 10.05 0.34 5.1 0 0 Z " fill="#5E8DA5" transform="translate(578,649)"/>
<path d="M0 0 C1.32 0 2.64 0 4 0 C4.08333357 4.8333472 3.95261487 9.23692563 3 14 C2.67 14 2.34 14 2 14 C1.67 10.04 1.34 6.08 1 2 C1.66 1.67 2.32 1.34 3 1 C2.01 0.67 1.02 0.34 0 0 Z " fill="#6594B4" transform="translate(688,611)"/>
<path d="M0 0 C0 0.66 0 1.32 0 2 C0.99 2.33 1.98 2.66 3 3 C2.01 3 1.02 3 0 3 C0 4.65 0 6.3 0 8 C-0.33 6.68 -0.66 5.36 -1 4 C-2.32 4 -3.64 4 -5 4 C-5 3.01 -5 2.02 -5 1 C-3 0 -3 0 0 0 Z " fill="#98C6D1" transform="translate(597,608)"/>
<path d="M0 0 C7.75 -0.125 7.75 -0.125 10 1 C10 1.66 10 2.32 10 3 C6.7 3 3.4 3 0 3 C0 2.01 0 1.02 0 0 Z " fill="#5E8DAA" transform="translate(832,513)"/>
<path d="M0 0 C7.75 -0.125 7.75 -0.125 10 1 C10 1.66 10 2.32 10 3 C6.7 3 3.4 3 0 3 C0 2.01 0 1.02 0 0 Z " fill="#5E8DAA" transform="translate(528,513)"/>
<path d="M0 0 C3.13107836 3.38583802 3.33550778 5.71109462 3.1875 10.25 C3.16042969 11.32765625 3.13335938 12.4053125 3.10546875 13.515625 C3.07066406 14.33546875 3.03585937 15.1553125 3 16 C2.67 16 2.34 16 2 16 C2 13.36 2 10.72 2 8 C1.34 8 0.68 8 0 8 C0 5.36 0 2.72 0 0 Z " fill="#608CA7" transform="translate(746,552)"/>
<path d="M0 0 C3.96 0 7.92 0 12 0 C12 0.66 12 1.32 12 2 C13.32 2.33 14.64 2.66 16 3 C13.36 3 10.72 3 8 3 C8 2.67 8 2.34 8 2 C5.36 1.67 2.72 1.34 0 1 C0 0.67 0 0.34 0 0 Z " fill="#5B8AA8" transform="translate(336,459)"/>
<path d="M0 0 C0.33 0 0.66 0 1 0 C1.33 5.61 1.66 11.22 2 17 C1.01 17.33 0.02 17.66 -1 18 C-0.505 9.09 -0.505 9.09 0 0 Z " fill="#94C2D4" transform="translate(446,688)"/>
<path d="M0 0 C0.99 0 1.98 0 3 0 C3 2.64 3 5.28 3 8 C1.68 7.34 0.36 6.68 -1 6 C-0.67 4.02 -0.34 2.04 0 0 Z " fill="#95C7D4" transform="translate(217,416)"/>
</svg>
